<?xml version="1.0" encoding="UTF-8" standalone="no"?>
<svg
   width="700pt"
   height="700pt"
   version="1.1"
   viewBox="0 0 700 700"
   id="svg171"
   sodipodi:docname="blog_logo.svg"
   inkscape:version="1.1.2 (0a00cf5339, 2022-02-04)"
   xmlns:inkscape="http://www.inkscape.org/namespaces/inkscape"
   xmlns:sodipodi="http://sodipodi.sourceforge.net/DTD/sodipodi-0.dtd"
   xmlns="http://www.w3.org/2000/svg"
   xmlns:svg="http://www.w3.org/2000/svg">
  <sodipodi:namedview
     id="namedview173"
     pagecolor="#ffffff"
     bordercolor="#666666"
     borderopacity="1.0"
     inkscape:pageshadow="2"
     inkscape:pageopacity="0.0"
     inkscape:pagecheckerboard="0"
     inkscape:document-units="pt"
     showgrid="false"
     inkscape:zoom="0.45214286"
     inkscape:cx="609.32069"
     inkscape:cy="290.83728"
     inkscape:window-width="1920"
     inkscape:window-height="1016"
     inkscape:window-x="0"
     inkscape:window-y="27"
     inkscape:window-maximized="1"
     inkscape:current-layer="g169" />
  <defs
     id="defs65">
    <symbol
       id="u"
       overflow="visible">
      <path
         d="m18.766-1.125c-0.96875 0.5-1.9805 0.875-3.0312 1.125-1.043 0.25781-2.1367 0.39062-3.2812 0.39062-3.3984 0-6.0898-0.94531-8.0781-2.8438-1.9922-1.9062-2.9844-4.4844-2.9844-7.7344 0-3.2578 0.99219-5.8359 2.9844-7.7344 1.9883-1.9062 4.6797-2.8594 8.0781-2.8594 1.1445 0 2.2383 0.13281 3.2812 0.39062 1.0508 0.25 2.0625 0.625 3.0312 1.125v4.2188c-0.98047-0.65625-1.9453-1.1406-2.8906-1.4531-0.94922-0.3125-1.9492-0.46875-3-0.46875-1.875 0-3.3516 0.60547-4.4219 1.8125-1.0742 1.1992-1.6094 2.8555-1.6094 4.9688 0 2.1055 0.53516 3.7617 1.6094 4.9688 1.0703 1.1992 2.5469 1.7969 4.4219 1.7969 1.0508 0 2.0508-0.14844 3-0.45312 0.94531-0.3125 1.9102-0.80078 2.8906-1.4688z"
         id="path2" />
    </symbol>
    <symbol
       id="d"
       overflow="visible">
      <path
         d="m13.734-11.141c-0.4375-0.19531-0.87109-0.34375-1.2969-0.4375-0.41797-0.10156-0.83984-0.15625-1.2656-0.15625-1.2617 0-2.2305 0.40625-2.9062 1.2188-0.67969 0.80469-1.0156 1.9531-1.0156 3.4531v7.0625h-4.8906v-15.312h4.8906v2.5156c0.625-1 1.3438-1.7266 2.1562-2.1875 0.82031-0.46875 1.8008-0.70312 2.9375-0.70312 0.16406 0 0.34375 0.011719 0.53125 0.03125 0.19531 0.011719 0.47656 0.039062 0.84375 0.078125z"
         id="path5" />
    </symbol>
    <symbol
       id="b"
       overflow="visible">
      <path
         d="m17.641-7.7031v1.4062h-11.453c0.125 1.1484 0.53906 2.0078 1.25 2.5781 0.70703 0.57422 1.7031 0.85938 2.9844 0.85938 1.0312 0 2.082-0.14844 3.1562-0.45312 1.082-0.3125 2.1914-0.77344 3.3281-1.3906v3.7656c-1.1562 0.4375-2.3125 0.76562-3.4688 0.98438-1.1562 0.22656-2.3125 0.34375-3.4688 0.34375-2.7734 0-4.9297-0.70312-6.4688-2.1094-1.5312-1.4062-2.2969-3.3789-2.2969-5.9219 0-2.5 0.75391-4.4609 2.2656-5.8906 1.5078-1.4375 3.582-2.1562 6.2188-2.1562 2.4062 0 4.332 0.73047 5.7812 2.1875 1.4453 1.4492 2.1719 3.3828 2.1719 5.7969zm-5.0312-1.625c0-0.92578-0.27344-1.6719-0.8125-2.2344-0.54297-0.57031-1.25-0.85938-2.125-0.85938-0.94922 0-1.7188 0.26562-2.3125 0.79688s-0.96484 1.2969-1.1094 2.2969z"
         id="path8" />
    </symbol>
    <symbol
       id="c"
       overflow="visible">
      <path
         d="m9.2188-6.8906c-1.0234 0-1.793 0.17188-2.3125 0.51562-0.51172 0.34375-0.76562 0.85547-0.76562 1.5312 0 0.625 0.20703 1.1172 0.625 1.4688 0.41406 0.34375 0.98828 0.51562 1.7188 0.51562 0.92578 0 1.7031-0.32812 2.3281-0.98438 0.63281-0.66406 0.95312-1.4922 0.95312-2.4844v-0.5625zm7.4688-1.8438v8.7344h-4.9219v-2.2656c-0.65625 0.92969-1.3984 1.6055-2.2188 2.0312-0.82422 0.41406-1.8242 0.625-3 0.625-1.5859 0-2.8711-0.45703-3.8594-1.375-0.99219-0.92578-1.4844-2.1289-1.4844-3.6094 0-1.7891 0.61328-3.1016 1.8438-3.9375 1.2383-0.84375 3.1797-1.2656 5.8281-1.2656h2.8906v-0.39062c0-0.76953-0.30859-1.332-0.92188-1.6875-0.61719-0.36328-1.5703-0.54688-2.8594-0.54688-1.0547 0-2.0312 0.10547-2.9375 0.3125-0.89844 0.21094-1.7305 0.52344-2.5 0.9375v-3.7344c1.0391-0.25 2.0859-0.44141 3.1406-0.57812 1.0625-0.13281 2.125-0.20312 3.1875-0.20312 2.7578 0 4.75 0.54688 5.9688 1.6406 1.2266 1.0859 1.8438 2.8555 1.8438 5.3125z"
         id="path11" />
    </symbol>
    <symbol
       id="a"
       overflow="visible">
      <path
         d="m7.7031-19.656v4.3438h5.0469v3.5h-5.0469v6.5c0 0.71094 0.14062 1.1875 0.42188 1.4375s0.83594 0.375 1.6719 0.375h2.5156v3.5h-4.1875c-1.9375 0-3.3125-0.39844-4.125-1.2031-0.80469-0.8125-1.2031-2.1797-1.2031-4.1094v-6.5h-2.4219v-3.5h2.4219v-4.3438z"
         id="path14" />
    </symbol>
    <symbol
       id="l"
       overflow="visible">
      <path
         d="m12.766-13.078v-8.2031h4.9219v21.281h-4.9219v-2.2188c-0.66797 0.90625-1.4062 1.5703-2.2188 1.9844s-1.7578 0.625-2.8281 0.625c-1.8867 0-3.4336-0.75-4.6406-2.25-1.2109-1.5-1.8125-3.4258-1.8125-5.7812 0-2.3633 0.60156-4.2969 1.8125-5.7969 1.207-1.5 2.7539-2.25 4.6406-2.25 1.0625 0 2 0.21484 2.8125 0.64062 0.82031 0.42969 1.5664 1.0859 2.2344 1.9688zm-3.2188 9.9219c1.0391 0 1.8359-0.37891 2.3906-1.1406 0.55078-0.76953 0.82812-1.8828 0.82812-3.3438 0-1.457-0.27734-2.5664-0.82812-3.3281-0.55469-0.76953-1.3516-1.1562-2.3906-1.1562-1.043 0-1.8398 0.38672-2.3906 1.1562-0.55469 0.76172-0.82812 1.8711-0.82812 3.3281 0 1.4609 0.27344 2.5742 0.82812 3.3438 0.55078 0.76172 1.3477 1.1406 2.3906 1.1406z"
         id="path17" />
    </symbol>
    <symbol
       id="k"
       overflow="visible">
      <path
         d="m10.5-3.1562c1.0508 0 1.8516-0.37891 2.4062-1.1406 0.55078-0.76953 0.82812-1.8828 0.82812-3.3438 0-1.457-0.27734-2.5664-0.82812-3.3281-0.55469-0.76953-1.3555-1.1562-2.4062-1.1562-1.0547 0-1.8594 0.38672-2.4219 1.1562-0.55469 0.77344-0.82812 1.8828-0.82812 3.3281 0 1.4492 0.27344 2.5586 0.82812 3.3281 0.5625 0.77344 1.3672 1.1562 2.4219 1.1562zm-3.25-9.9219c0.67578-0.88281 1.4219-1.5391 2.2344-1.9688 0.82031-0.42578 1.7656-0.64062 2.8281-0.64062 1.8945 0 3.4453 0.75 4.6562 2.25 1.207 1.5 1.8125 3.4336 1.8125 5.7969 0 2.3555-0.60547 4.2812-1.8125 5.7812-1.2109 1.5-2.7617 2.25-4.6562 2.25-1.0625 0-2.0078-0.21094-2.8281-0.625-0.8125-0.42578-1.5586-1.0859-2.2344-1.9844v2.2188h-4.8906v-21.281h4.8906z"
         id="path20" />
    </symbol>
    <symbol
       id="j"
       overflow="visible">
      <path
         d="m0.34375-15.312h4.8906l4.125 10.391 3.5-10.391h4.8906l-6.4375 16.766c-0.64844 1.6953-1.4023 2.8828-2.2656 3.5625-0.86719 0.6875-2 1.0312-3.4062 1.0312h-2.8438v-3.2188h1.5312c0.83203 0 1.4375-0.13672 1.8125-0.40625 0.38281-0.26172 0.67969-0.73047 0.89062-1.4062l0.14062-0.42188z"
         id="path23" />
    </symbol>
    <symbol
       id="h"
       overflow="visible">
      <path
         d="m2.3594-15.312h4.8906v15.312h-4.8906zm0-5.9688h4.8906v4h-4.8906z"
         id="path26" />
    </symbol>
    <symbol
       id="g"
       overflow="visible">
      <path
         d="m17.75-9.3281v9.3281h-4.9219v-7.1406c0-1.3203-0.03125-2.2344-0.09375-2.7344s-0.16797-0.86719-0.3125-1.1094c-0.1875-0.3125-0.44922-0.55469-0.78125-0.73438-0.32422-0.17578-0.69531-0.26562-1.1094-0.26562-1.0234 0-1.8242 0.39844-2.4062 1.1875-0.58594 0.78125-0.875 1.8711-0.875 3.2656v7.5312h-4.8906v-15.312h4.8906v2.2344c0.73828-0.88281 1.5195-1.5391 2.3438-1.9688 0.83203-0.42578 1.75-0.64062 2.75-0.64062 1.7695 0 3.1133 0.54688 4.0312 1.6406 0.91406 1.0859 1.375 2.6562 1.375 4.7188z"
         id="path29" />
    </symbol>
    <symbol
       id="f"
       overflow="visible">
      <path
         d="m2.1875-5.9688v-9.3438h4.9219v1.5312c0 0.83594-0.007813 1.875-0.015625 3.125-0.011719 1.25-0.015625 2.0859-0.015625 2.5 0 1.2422 0.03125 2.1328 0.09375 2.6719 0.070313 0.54297 0.17969 0.93359 0.32812 1.1719 0.20703 0.32422 0.47266 0.57422 0.79688 0.75 0.32031 0.16797 0.69141 0.25 1.1094 0.25 1.0195 0 1.8203-0.39062 2.4062-1.1719 0.58203-0.78125 0.875-1.8672 0.875-3.2656v-7.5625h4.8906v15.312h-4.8906v-2.2188c-0.74219 0.89844-1.5234 1.5586-2.3438 1.9844-0.82422 0.41406-1.7344 0.625-2.7344 0.625-1.7617 0-3.1055-0.53906-4.0312-1.625-0.92969-1.082-1.3906-2.6602-1.3906-4.7344z"
         id="path32" />
    </symbol>
    <symbol
       id="t"
       overflow="visible">
      <path
         d="m2.3594-21.281h4.8906v21.281h-4.8906z"
         id="path35" />
    </symbol>
    <symbol
       id="i"
       overflow="visible">
      <path
         d="m16.547-12.766c0.61328-0.94531 1.3477-1.6719 2.2031-2.1719 0.85156-0.5 1.7891-0.75 2.8125-0.75 1.7578 0 3.0977 0.54688 4.0156 1.6406 0.92578 1.0859 1.3906 2.6562 1.3906 4.7188v9.3281h-4.9219v-7.9844-0.35938c0.007813-0.13281 0.015625-0.32031 0.015625-0.5625 0-1.082-0.16406-1.8633-0.48438-2.3438-0.3125-0.48828-0.82422-0.73438-1.5312-0.73438-0.92969 0-1.6484 0.38672-2.1562 1.1562-0.51172 0.76172-0.77344 1.8672-0.78125 3.3125v7.5156h-4.9219v-7.9844c0-1.6953-0.14844-2.7852-0.4375-3.2656-0.29297-0.48828-0.8125-0.73438-1.5625-0.73438-0.9375 0-1.6641 0.38672-2.1719 1.1562-0.51172 0.76172-0.76562 1.8594-0.76562 3.2969v7.5312h-4.9219v-15.312h4.9219v2.2344c0.60156-0.86328 1.2891-1.5156 2.0625-1.9531 0.78125-0.4375 1.6406-0.65625 2.5781-0.65625 1.0625 0 2 0.25781 2.8125 0.76562 0.8125 0.51172 1.4258 1.2305 1.8438 2.1562z"
         id="path38" />
    </symbol>
    <symbol
       id="s"
       overflow="visible">
      <path
         d="m9.5469-12.125c-1.043 0-1.8398 0.38672-2.3906 1.1562-0.55469 0.76172-0.82812 1.8711-0.82812 3.3281 0 1.4609 0.27344 2.5742 0.82812 3.3438 0.55078 0.76172 1.3477 1.1406 2.3906 1.1406 1.0391 0 1.8359-0.37891 2.3906-1.1406 0.55078-0.76953 0.82812-1.8828 0.82812-3.3438 0-1.457-0.27734-2.5664-0.82812-3.3281-0.55469-0.76953-1.3516-1.1562-2.3906-1.1562zm3.2188 9.9062c-0.66797 0.90625-1.4062 1.5703-2.2188 1.9844s-1.7578 0.625-2.8281 0.625c-1.8867 0-3.4336-0.75-4.6406-2.25-1.2109-1.5-1.8125-3.4258-1.8125-5.7812 0-2.3633 0.60156-4.2891 1.8125-5.7812 1.207-1.4883 2.7539-2.2344 4.6406-2.2344 1.0703 0 2.0156 0.21484 2.8281 0.64062 0.8125 0.41797 1.5508 1.0742 2.2188 1.9688v-2.2656h4.9219v21.141h-4.9219z"
         id="path41" />
    </symbol>
    <symbol
       id="r"
       overflow="visible">
      <path
         d="m12.422-21.281v3.2188h-2.7031c-0.6875 0-1.1719 0.125-1.4531 0.375-0.27344 0.25-0.40625 0.6875-0.40625 1.3125v1.0625h4.1875v3.5h-4.1875v11.812h-4.8906v-11.812h-2.4375v-3.5h2.4375v-1.0625c0-1.6641 0.46094-2.8984 1.3906-3.7031 0.92578-0.80078 2.3672-1.2031 4.3281-1.2031z"
         id="path44" />
    </symbol>
    <symbol
       id="e"
       overflow="visible">
      <path
         d="m9.6406-12.188c-1.0859 0-1.9141 0.39062-2.4844 1.1719-0.57422 0.78125-0.85938 1.9062-0.85938 3.375s0.28516 2.5938 0.85938 3.375c0.57031 0.77344 1.3984 1.1562 2.4844 1.1562 1.0625 0 1.875-0.38281 2.4375-1.1562 0.57031-0.78125 0.85938-1.9062 0.85938-3.375s-0.28906-2.5938-0.85938-3.375c-0.5625-0.78125-1.375-1.1719-2.4375-1.1719zm0-3.5c2.6328 0 4.6914 0.71484 6.1719 2.1406 1.4766 1.418 2.2188 3.3867 2.2188 5.9062 0 2.5117-0.74219 4.4805-2.2188 5.9062-1.4805 1.418-3.5391 2.125-6.1719 2.125-2.6484 0-4.7148-0.70703-6.2031-2.125-1.4922-1.4258-2.2344-3.3945-2.2344-5.9062 0-2.5195 0.74219-4.4883 2.2344-5.9062 1.4883-1.4258 3.5547-2.1406 6.2031-2.1406z"
         id="path47" />
    </symbol>
    <symbol
       id="q"
       overflow="visible">
      <path
         d="m17.75-9.3281v9.3281h-4.9219v-7.1094c0-1.3438-0.03125-2.2656-0.09375-2.7656s-0.16797-0.86719-0.3125-1.1094c-0.1875-0.3125-0.44922-0.55469-0.78125-0.73438-0.32422-0.17578-0.69531-0.26562-1.1094-0.26562-1.0234 0-1.8242 0.39844-2.4062 1.1875-0.58594 0.78125-0.875 1.8711-0.875 3.2656v7.5312h-4.8906v-21.281h4.8906v8.2031c0.73828-0.88281 1.5195-1.5391 2.3438-1.9688 0.83203-0.42578 1.75-0.64062 2.75-0.64062 1.7695 0 3.1133 0.54688 4.0312 1.6406 0.91406 1.0859 1.375 2.6562 1.375 4.7188z"
         id="path50" />
    </symbol>
    <symbol
       id="p"
       overflow="visible">
      <path
         d="m2.5781-20.406h5.875l7.4219 14v-14h4.9844v20.406h-5.875l-7.4219-14v14h-4.9844z"
         id="path53" />
    </symbol>
    <symbol
       id="o"
       overflow="visible">
      <path
         d="m2.5781-20.406h8.7344c2.5938 0 4.582 0.57812 5.9688 1.7344 1.3945 1.1484 2.0938 2.7891 2.0938 4.9219 0 2.1367-0.69922 3.7812-2.0938 4.9375-1.3867 1.1562-3.375 1.7344-5.9688 1.7344h-3.4844v7.0781h-5.25zm5.25 3.8125v5.7031h2.9219c1.0195 0 1.8047-0.25 2.3594-0.75 0.5625-0.5 0.84375-1.2031 0.84375-2.1094 0-0.91406-0.28125-1.6172-0.84375-2.1094-0.55469-0.48828-1.3398-0.73438-2.3594-0.73438z"
         id="path56" />
    </symbol>
    <symbol
       id="n"
       overflow="visible">
      <path
         d="m2.3594-15.312h4.8906v15.031c0 2.0508-0.49609 3.6172-1.4844 4.7031-0.98047 1.082-2.4062 1.625-4.2812 1.625h-2.4219v-3.2188h0.85938c0.92578 0 1.5625-0.21094 1.9062-0.625 0.35156-0.41797 0.53125-1.2461 0.53125-2.4844zm0-5.9688h4.8906v4h-4.8906z"
         id="path59" />
    </symbol>
    <symbol
       id="m"
       overflow="visible">
      <path
         d="m14.719-14.828v3.9844c-0.65625-0.45703-1.3242-0.79688-2-1.0156-0.66797-0.21875-1.3594-0.32812-2.0781-0.32812-1.3672 0-2.4336 0.40234-3.2031 1.2031-0.76172 0.79297-1.1406 1.9062-1.1406 3.3438 0 1.4297 0.37891 2.543 1.1406 3.3438 0.76953 0.79297 1.8359 1.1875 3.2031 1.1875 0.75781 0 1.4844-0.10938 2.1719-0.32812 0.6875-0.22656 1.3203-0.56641 1.9062-1.0156v4c-0.76172 0.28125-1.5391 0.48828-2.3281 0.625-0.78125 0.14453-1.5742 0.21875-2.375 0.21875-2.7617 0-4.9219-0.70703-6.4844-2.125-1.5547-1.4141-2.3281-3.3828-2.3281-5.9062 0-2.5312 0.77344-4.5039 2.3281-5.9219 1.5625-1.4141 3.7227-2.125 6.4844-2.125 0.80078 0 1.5938 0.074219 2.375 0.21875 0.78125 0.13672 1.5547 0.35156 2.3281 0.64062z"
         id="path62" />
    </symbol>
  </defs>
  <g
     id="g169">
    <path
       d="m 582.71523,239.99952 86.57606,-46.52738 c -1.86433,-10.56649 -4.61435,-20.51429 -8.08282,-29.92154 l -85.15062,33.65083 81.24213,-43.77637 c -18.2025,-41.64697 -50.615,-70.94221 -74.31789,-87.906379 l -10.12048,28.05691 c -0.71225,1.597948 -2.04396,3.016255 -3.90814,3.462294 -14.74101,3.641925 -29.21597,8.968365 -43.24363,16.339435 -8.96839,4.79384 -17.49058,10.38683 -25.30751,16.07307 -0.44595,0.26632 -0.8857,0.44593 -1.41836,0.71227 -13.14305,5.32661 -26.46023,8.25614 -40.04869,9.23477 -8.96836,0.71225 -31.347,-0.7123 -42.08614,-1.59796 l -17.05137,47.41214 c 0.26633,6.21849 0.71227,12.43065 1.41838,18.38325 l 17.75693,3.01626 -16.785,5.77249 c 1.41835,9.23474 2.75006,16.60581 4.17453,18.38324 3.1959,4.34799 13.84913,13.14308 21.21986,19.35522 l 2.57658,-6.65818 c 0.71228,-1.59795 2.04399,-3.01625 3.90817,-3.46227 1.86432,-0.44594 3.64192,0 5.3266,1.15201 l 49.27679,42.08616 c 1.41834,1.15202 2.04396,3.01627 1.86431,4.79385 0,1.86434 -0.88569,3.46228 -2.57657,4.61437 l -152.26522,95.3697 34.0964,24.14845 c 25.57389,15.44708 52.74603,28.3233 80.80296,38.71044 28.77041,10.38685 58.69197,18.20252 89.05907,22.99733 0.44593,0 1.59795,0.26633 2.04398,0.44594 l 2.75004,0.26633 c 2.57657,0.44595 4.61436,0.71227 6.92457,0.88569 l 2.75002,-4.17451 c 13.14308,-20.24791 44.39635,-68.63835 66.06178,-105.39853 l -95.09857,38.88962 104.50583,-54.78352 c 5.32662,-9.4144 9.4144,-17.49057 11.71844,-22.81815 3.01624,-7.1042 5.95211,-14.29499 8.78887,-20.95348 l -92.78837,37.55929 98.55991,-52.0325 c 5.06023,-13.84913 8.96838,-26.72501 11.7184,-39.60314 l -90.64465,36.67931 92.96755,-49.45593 c 1.41832,-11.27875 1.86433,-22.55177 0.71226,-34.54197 z m -32.76451,-83.99313 c -3.46227,9.41439 -13.84913,14.29499 -23.26368,10.83271 -9.23476,-3.46229 -14.02877,-13.84913 -10.56649,-23.2637 3.1959,-9.23477 13.58275,-14.02877 22.9973,-10.56648 9.50114,3.1959 14.295,13.58273 10.83272,22.9973 z"
       id="path67"
       style="stroke-width:1.58558" />
    <path
       d="m 524.6353,553.7866 c -5.77249,-10.38684 -11.71843,-20.68711 -17.75696,-31.34699 -0.71228,-1.41836 -0.88571,-3.19591 -0.26634,-4.79386 l 5.32661,-14.74102 c 0.71229,-1.86433 2.31021,-3.19592 4.17453,-3.64193 l 15.8923,-3.64193 c 0,-2.75003 0.26634,-5.32662 0.44596,-8.08283 v -3.1959 c -28.50405,-4.79385 -57.80565,-12.43067 -85.86254,-22.55175 -27.17217,-9.85409 -53.36441,-22.55177 -78.31359,-37.29293 l -2.04396,2.57655 c -1.59797,2.31021 -3.19592,4.34799 -4.79387,6.48473 l 9.85409,13.14306 c 1.15203,1.59794 1.41835,3.46228 0.71228,5.32662 l -5.32661,15.00724 c -0.71228,1.59794 -1.86433,2.75002 -3.46228,3.46226 -11.27874,4.17453 -22.55177,8.52253 -33.83004,12.69704 -11.01234,4.17453 -22.11095,8.08284 -33.11808,12.43068 -5.32661,4.61435 -10.12046,9.23475 -11.27873,15.44708 -0.88571,4.34797 -0.44597,11.01235 0,15.18068 5.77247,3.90813 12.43066,8.25614 19.80077,12.69704 30.18793,18.20251 63.04599,33.83002 98.02713,46.52739 34.71638,12.69703 69.97025,21.84458 104.95141,27.43853 8.78889,1.41834 16.60582,2.31019 23.44285,3.01625 2.75004,-2.75003 7.6368,-7.81646 9.68078,-11.71842 3.01626,-5.50625 2.31021,-11.98478 1.41834,-18.91602 -5.95211,-10.82653 -11.63786,-21.12632 -17.67608,-31.51348 z"
       id="path69"
       style="stroke-width:1.58558" />
    <path
       d="m 528.10772,626.78689 c -5.95213,-0.71229 -13.58275,-1.59795 -22.11096,-3.01626 -35.69467,-5.50626 -71.5685,-14.74102 -107.08243,-27.61136 -35.42828,-13.14307 -69.07754,-29.03522 -99.89179,-47.67851 -6.92455,-4.17453 -13.31637,-8.25615 -18.91601,-11.9848 -1.59795,1.41836 -3.01625,3.01627 -4.34798,4.61436 l -3.64195,3.90814 -10.12046,27.88408 c 7.81647,5.50627 16.07307,10.83271 24.86196,15.89231 30.81424,18.64966 63.57875,34.27556 97.58159,46.70655 34.09642,12.43068 69.25831,21.39904 104.77224,26.9058 12.16443,2.04396 22.11095,3.19588 29.48233,3.90813 l 10.12047,-28.05691 -0.26635,-5.32659 c -0.17341,-2.06255 -0.17341,-4.10017 -0.43973,-6.14415 z"
       id="path71"
       style="stroke-width:1.58558" />
    <path
       d="m 105.45445,68.011233 c 6.2185,4.347977 15.44708,5.952111 24.41484,4.614347 l 0.26631,-0.266321 h 0.26633 c 15.62671,-2.750028 26.46022,-14.028777 24.59557,-25.128329 -0.88568,-5.060235 -4.61435,-9.41442 -10.12046,-12.16445 -4.34799,-2.31019 -9.4144,-3.46228 -15.00723,-3.46228 -2.3102,0 -4.61436,0.266327 -6.92457,0.712279 -7.81645,1.418343 -14.74101,4.793851 -19.53439,9.854086 -4.347996,4.793851 -6.218513,10.120469 -5.326622,15.180701 0.891891,5.419517 4.354182,8.881799 7.370442,10.659398 z"
       id="path73"
       style="stroke-width:1.58558" />
    <path
       d="m 100.38057,253.58798 119.5134,-21.21986 c 15.00724,-20.68712 21.66541,-40.04869 19.35523,-57.80564 -5.32661,-46.52739 -66.50732,-88.439136 -77.78083,-95.983354 -7.10419,1.418384 -14.47463,2.576596 -21.66542,4.174533 -2.04397,0.266332 -3.90815,0.445951 -5.50625,0.712272 l -8.25615,1.59797 -1.41835,0.266332 -21.84458,3.641902 C 94.694776,99.98451 51.629838,160.35991 62.462545,205.91532 c 4.087803,17.48425 16.964165,33.37814 37.917655,47.67216 z"
       id="path75"
       style="stroke-width:1.58558" />
    <path
       d="m 229.76424,249.41789 -0.44597,-2.75002 -6.65817,-2.93588 -119.78611,20.95984 -4.347991,9.58786 14.561361,13.14307 106.54967,-18.82248 z"
       id="path77"
       style="stroke-width:1.58558" />
    <path
       d="m 91.865983,318.05783 158.136647,-27.88409 -0.17343,-0.88568 -26.99776,-9.4144 -109.12622,19.08885 -22.104612,18.2025 z"
       id="path79"
       style="stroke-width:1.58558" />
    <path
       d="m 241.30729,327.46034 h 0.44594 l 32.23175,-5.77249 c 0.71228,-0.44595 1.15201,-0.71226 1.15201,-0.88567 0.71229,-2.04398 -4.34797,-10.83272 -19.80078,-20.06717 L 90.530627,329.77024 c -11.544962,14.29498 -13.31638,23.97561 -11.984797,25.57387 0.266321,0.26633 0.445951,0.44594 1.418362,0.71228 l 32.677298,-5.77247 z"
       id="path81"
       style="stroke-width:1.58558" />
    <path
       d="m 116.9975,506.1081 c -0.71228,0.71225 -1.41835,1.41835 -2.04398,2.31019 l 178.3782,-31.51984 c -0.8857,-0.44594 -1.59795,-0.88567 -2.75003,-1.41834 -9.68078,-4.61436 -20.68712,-9.4144 -32.23175,-19.08883 -32.23176,-26.9058 -26.01309,-93.23395 -22.81816,-116.23125 l -113.03469,20.06714 c 11.54496,21.21987 39.33676,80.80296 18.20251,117.20955 -7.37044,12.77759 -16.16502,21.30074 -23.70924,28.67053 z"
       id="path83"
       style="stroke-width:1.58558" />
    <path
       d="m 115.57048,610.43952 c 35.42828,0.71225 71.56849,-2.04399 108.24147,-8.52251 0,0 0.26632,0 0.26632,-0.26633 15.44708,-2.57659 30.6335,-5.95213 45.54909,-9.85409 -6.21851,-3.90816 -12.43067,-7.81646 -17.93613,-11.9848 -2.04397,-1.41837 -3.01625,-4.17452 -2.04397,-6.65818 l 12.16443,-33.11811 c 0.26634,-0.71225 0.71226,-1.41833 1.15202,-2.04396 l 4.61436,-4.79384 c 2.04399,-2.04399 3.90816,-4.17455 5.95213,-6.48473 -0.44593,-4.17453 -0.88568,-12.16445 0.26635,-18.20251 1.59793,-7.81646 6.21849,-13.58275 11.01234,-18.38326 l -176.79262,31.34699 c 1.41836,1.41833 2.75003,3.01625 4.17452,4.61436 0.8857,0.71228 1.59797,1.86434 1.59797,3.19591 l 1.86432,11.54496 c 0,0.26631 -0.26634,0.44593 -0.26634,0.71226 0,0.71228 -0.26633,1.41835 -0.44594,2.044 -0.26633,0.71226 -0.44594,1.41834 -0.88568,1.8643 -0.26633,0.26634 -0.26633,0.44596 -0.26633,0.7123 -2.57658,2.04396 -5.06024,3.90814 -7.63681,5.77247 -7.37044,5.06023 -14.295006,10.12047 -19.08885,23.97561 -2.310209,7.10419 -4.614379,14.02877 -2.576574,20.51428 1.597959,4.17455 5.326596,9.8541 7.636805,13.14307 6.844002,0.42737 14.920669,0.60698 23.442869,0.87331 z"
       id="path85"
       style="stroke-width:1.58558" />
    <path
       d="m 226.1174,613.19843 h -0.26635 -0.44594 c -0.44595,0.26633 -0.8857,0.26633 -1.41835,0.26633 -33.11808,5.77247 -66.06176,8.78888 -98.02716,8.78888 -3.46227,0 -6.92456,-0.26632 -10.56646,-0.26632 -8.08284,0 -15.447096,-0.44594 -22.110984,-0.8857 -0.445962,1.86434 -0.885698,3.90815 -1.418351,5.95215 l -1.418351,5.32659 6.218498,34.98117 c 9.414408,0.71227 19.355228,1.15201 29.482348,1.15201 35.87383,0.71228 71.83488,-2.04398 107.26159,-8.25612 0.26633,0 0.44595,0 0.71226,-0.26635 34.71637,-5.95211 69.52469,-15.62672 103.17395,-28.50405 1.41837,-0.71227 2.57659,-1.15202 3.90816,-1.59795 -19.80077,-8.96836 -39.33675,-18.64963 -57.80564,-29.65517 -18.65598,5.14697 -38.0112,9.49497 -57.27921,12.96342 z"
       id="path87"
       style="stroke-width:1.58558" />
  </g>
</svg>
