<svg width="700pt" height="700pt" version="1.1" viewBox="0 0 700 700" id="svg171" xmlns="http://www.w3.org/2000/svg"><defs id="defs65"><symbol id="u" overflow="visible"><path d="M18.766-1.125c-.969.5-1.98.875-3.031 1.125-1.043.258-2.137.39-3.281.39-3.399 0-6.09-.945-8.079-2.843-1.992-1.906-2.984-4.485-2.984-7.735 0-3.257.992-5.835 2.984-7.734 1.989-1.906 4.68-2.86 8.079-2.86 1.144 0 2.238.133 3.28.391 1.052.25 2.063.625 3.032 1.125v4.219c-.98-.656-1.945-1.14-2.89-1.453a9.532 9.532 0 0 0-3-.469c-1.876 0-3.352.606-4.423 1.813-1.074 1.199-1.609 2.855-1.609 4.968 0 2.106.535 3.762 1.61 4.97C9.523-4.02 11-3.423 12.874-3.423c1.051 0 2.051-.148 3-.453.946-.312 1.91-.8 2.891-1.469z" id="path2"/></symbol><symbol id="d" overflow="visible"><path d="M13.734-11.141a6.765 6.765 0 0 0-1.297-.438 5.346 5.346 0 0 0-1.265-.156c-1.262 0-2.231.406-2.907 1.219-.68.805-1.015 1.953-1.015 3.453V0H2.36v-15.312h4.89v2.515c.625-1 1.344-1.726 2.156-2.187.82-.469 1.8-.703 2.937-.703.164 0 .344.011.532.03.195.013.476.04.843.079z" id="path5"/></symbol><symbol id="b" overflow="visible"><path d="M17.641-7.703v1.406H6.188c.125 1.148.54 2.008 1.25 2.578.707.574 1.703.86 2.984.86a11.52 11.52 0 0 0 3.157-.454 16.707 16.707 0 0 0 3.328-1.39v3.765a20.629 20.629 0 0 1-3.47.985A18.006 18.006 0 0 1 9.97.39C7.196.39 5.04-.313 3.5-1.72 1.97-3.125 1.203-5.098 1.203-7.64c0-2.5.754-4.46 2.266-5.89 1.508-1.438 3.582-2.157 6.219-2.157 2.406 0 4.332.731 5.781 2.188 1.445 1.45 2.172 3.383 2.172 5.797zM12.61-9.328c0-.926-.274-1.672-.813-2.234-.543-.57-1.25-.86-2.125-.86-.949 0-1.719.266-2.312.797s-.965 1.297-1.11 2.297z" id="path8"/></symbol><symbol id="c" overflow="visible"><path d="M9.219-6.89c-1.024 0-1.793.171-2.313.515-.511.344-.765.855-.765 1.531 0 .625.207 1.117.625 1.469.414.344.988.516 1.718.516.926 0 1.704-.328 2.329-.985.632-.664.953-1.492.953-2.484v-.563zm7.469-1.844V0h-4.922v-2.266c-.657.93-1.399 1.606-2.22 2.032-.823.414-1.823.625-3 .625-1.585 0-2.87-.457-3.859-1.375-.992-.926-1.484-2.13-1.484-3.61 0-1.789.613-3.101 1.844-3.937 1.238-.844 3.18-1.266 5.828-1.266h2.89v-.39c0-.77-.308-1.333-.921-1.688-.617-.363-1.57-.547-2.86-.547-1.054 0-2.03.106-2.937.313-.899.21-1.73.523-2.5.937v-3.734c1.039-.25 2.086-.442 3.14-.578a25.68 25.68 0 0 1 3.188-.204c2.758 0 4.75.547 5.969 1.641 1.226 1.086 1.844 2.856 1.844 5.313z" id="path11"/></symbol><symbol id="a" overflow="visible"><path d="M7.703-19.656v4.344h5.047v3.5H7.703v6.5c0 .71.14 1.187.422 1.437s.836.375 1.672.375h2.515V0H8.125C6.187 0 4.812-.398 4-1.203c-.805-.812-1.203-2.18-1.203-4.11v-6.5H.375v-3.5h2.422v-4.343z" id="path14"/></symbol><symbol id="l" overflow="visible"><path d="M12.766-13.078v-8.203h4.922v21.28h-4.922v-2.218c-.668.906-1.406 1.57-2.219 1.985S8.79.39 7.72.39c-1.887 0-3.434-.75-4.64-2.25-1.211-1.5-1.813-3.426-1.813-5.782 0-2.363.602-4.297 1.812-5.797 1.207-1.5 2.754-2.25 4.641-2.25 1.063 0 2 .215 2.813.641.82.43 1.566 1.086 2.234 1.969zM9.547-3.156c1.04 0 1.836-.379 2.39-1.14.552-.77.829-1.883.829-3.344 0-1.457-.277-2.567-.828-3.329-.555-.77-1.352-1.156-2.39-1.156-1.044 0-1.84.387-2.391 1.156-.555.762-.829 1.872-.829 3.329 0 1.46.274 2.574.829 3.343.55.762 1.347 1.14 2.39 1.14z" id="path17"/></symbol><symbol id="k" overflow="visible"><path d="M10.5-3.156c1.05 0 1.852-.38 2.406-1.14.551-.77.828-1.884.828-3.345 0-1.457-.277-2.566-.828-3.328-.554-.77-1.355-1.156-2.406-1.156-1.055 0-1.86.387-2.422 1.156-.555.774-.828 1.883-.828 3.328 0 1.45.273 2.559.828 3.329.563.773 1.367 1.156 2.422 1.156zm-3.25-9.922c.676-.883 1.422-1.54 2.234-1.969.82-.426 1.766-.64 2.829-.64 1.894 0 3.445.75 4.656 2.25 1.207 1.5 1.812 3.433 1.812 5.796 0 2.356-.605 4.282-1.812 5.782C15.758-.36 14.207.39 12.312.39 11.25.39 10.305.18 9.484-.234 8.672-.66 7.926-1.32 7.25-2.22V0H2.36v-21.281h4.89z" id="path20"/></symbol><symbol id="j" overflow="visible"><path d="M.344-15.312h4.89L9.36-4.921l3.5-10.391h4.89L11.313 1.454c-.648 1.695-1.402 2.883-2.265 3.562-.867.688-2 1.032-3.406 1.032H2.797v-3.22h1.531c.832 0 1.438-.136 1.813-.405.382-.262.68-.73.89-1.407l.14-.421z" id="path23"/></symbol><symbol id="h" overflow="visible"><path d="M2.36-15.312h4.89V0H2.36zm0-5.969h4.89v4H2.36z" id="path26"/></symbol><symbol id="g" overflow="visible"><path d="M17.75-9.328V0h-4.922v-7.14c0-1.32-.031-2.235-.094-2.735s-.168-.867-.312-1.11a1.994 1.994 0 0 0-.781-.734 2.295 2.295 0 0 0-1.11-.265c-1.023 0-1.824.398-2.406 1.187-.586.781-.875 1.871-.875 3.266v7.53H2.36v-15.311h4.89v2.234c.738-.883 1.52-1.539 2.344-1.969.832-.425 1.75-.64 2.75-.64 1.77 0 3.113.547 4.031 1.64.914 1.086 1.375 2.657 1.375 4.72z" id="path29"/></symbol><symbol id="f" overflow="visible"><path d="M2.188-5.969v-9.344h4.921v1.532c0 .836-.007 1.875-.015 3.125-.012 1.25-.016 2.086-.016 2.5 0 1.242.031 2.132.094 2.672.07.542.18.933.328 1.171.207.325.473.575.797.75.32.168.691.25 1.11.25 1.019 0 1.82-.39 2.406-1.171.582-.782.875-1.868.875-3.266v-7.563h4.89V0h-4.89v-2.218c-.743.898-1.524 1.558-2.344 1.984C9.519.179 8.609.39 7.609.39c-1.761 0-3.105-.54-4.03-1.625-.93-1.082-1.391-2.66-1.391-4.734z" id="path32"/></symbol><symbol id="t" overflow="visible"><path d="M2.36-21.281h4.89V0H2.36z" id="path35"/></symbol><symbol id="i" overflow="visible"><path d="M16.547-12.766c.613-.945 1.348-1.672 2.203-2.172.852-.5 1.79-.75 2.813-.75 1.757 0 3.097.547 4.015 1.64.926 1.087 1.39 2.657 1.39 4.72V0h-4.921v-8.345c.008-.132.016-.32.016-.562 0-1.082-.165-1.863-.485-2.343-.312-.489-.824-.735-1.531-.735-.93 0-1.648.387-2.156 1.156-.512.762-.774 1.868-.782 3.313v7.515h-4.921v-7.984c0-1.695-.149-2.785-.438-3.266-.293-.488-.812-.734-1.562-.734-.938 0-1.665.387-2.172 1.156-.512.762-.766 1.86-.766 3.297V0H2.328v-15.312H7.25v2.235c.602-.864 1.29-1.516 2.063-1.953a5.186 5.186 0 0 1 2.578-.657c1.062 0 2 .258 2.812.766.813.512 1.426 1.23 1.844 2.156z" id="path38"/></symbol><symbol id="s" overflow="visible"><path d="M9.547-12.125c-1.043 0-1.84.387-2.39 1.156-.555.762-.829 1.871-.829 3.328 0 1.461.274 2.575.828 3.344.551.762 1.348 1.14 2.39 1.14 1.04 0 1.837-.378 2.392-1.14.55-.77.828-1.883.828-3.344 0-1.457-.278-2.566-.828-3.328-.555-.77-1.352-1.156-2.391-1.156zm3.219 9.906c-.668.906-1.406 1.57-2.22 1.985S8.79.39 7.72.39c-1.887 0-3.434-.75-4.64-2.25-1.212-1.5-1.813-3.426-1.813-5.782 0-2.363.601-4.289 1.812-5.78 1.207-1.49 2.754-2.235 4.64-2.235 1.071 0 2.016.215 2.829.64.812.418 1.55 1.075 2.219 1.97v-2.266h4.922v21.14h-4.922z" id="path41"/></symbol><symbol id="r" overflow="visible"><path d="M12.422-21.281v3.219H9.719c-.688 0-1.172.125-1.453.375-.274.25-.406.687-.406 1.312v1.063h4.187v3.5H7.86V0H2.969v-11.812H.531v-3.5H2.97v-1.063c0-1.664.46-2.898 1.39-3.703.926-.8 2.368-1.203 4.329-1.203z" id="path44"/></symbol><symbol id="e" overflow="visible"><path d="M9.64-12.188c-1.085 0-1.914.39-2.484 1.172-.574.781-.86 1.906-.86 3.375s.286 2.594.86 3.375c.57.773 1.399 1.156 2.485 1.156 1.062 0 1.875-.383 2.437-1.156.57-.781.86-1.906.86-3.375s-.29-2.594-.86-3.375c-.562-.781-1.375-1.172-2.437-1.172zm0-3.5c2.633 0 4.692.715 6.172 2.14 1.477 1.419 2.22 3.387 2.22 5.907 0 2.512-.743 4.48-2.22 5.906C14.333-.317 12.274.39 9.642.39c-2.649 0-4.715-.707-6.203-2.125-1.493-1.426-2.235-3.394-2.235-5.906 0-2.52.742-4.488 2.235-5.906 1.488-1.426 3.554-2.141 6.203-2.141z" id="path47"/></symbol><symbol id="q" overflow="visible"><path d="M17.75-9.328V0h-4.922v-7.11c0-1.343-.031-2.265-.094-2.765s-.168-.867-.312-1.11a1.994 1.994 0 0 0-.781-.734 2.295 2.295 0 0 0-1.11-.265c-1.023 0-1.824.398-2.406 1.187-.586.781-.875 1.871-.875 3.266v7.53H2.36v-21.28h4.89v8.203c.738-.883 1.52-1.54 2.344-1.969.832-.426 1.75-.64 2.75-.64 1.77 0 3.113.546 4.031 1.64.914 1.086 1.375 2.656 1.375 4.719z" id="path50"/></symbol><symbol id="p" overflow="visible"><path d="M2.578-20.406h5.875l7.422 14v-14h4.984V0h-5.875L7.563-14V0H2.578z" id="path53"/></symbol><symbol id="o" overflow="visible"><path d="M2.578-20.406h8.735c2.593 0 4.581.578 5.968 1.734 1.395 1.149 2.094 2.79 2.094 4.922 0 2.137-.7 3.782-2.094 4.938-1.386 1.156-3.375 1.734-5.968 1.734H7.828V0h-5.25zm5.25 3.813v5.703h2.922c1.02 0 1.805-.25 2.36-.75.562-.5.843-1.203.843-2.11 0-.914-.281-1.617-.844-2.11-.554-.487-1.34-.734-2.359-.734z" id="path56"/></symbol><symbol id="n" overflow="visible"><path d="M2.36-15.312h4.89V-.281c0 2.05-.496 3.617-1.484 4.703-.98 1.082-2.407 1.625-4.282 1.625H-.937V2.828h.859c.926 0 1.562-.21 1.906-.625.352-.418.531-1.246.531-2.484zm0-5.969h4.89v4H2.36z" id="path59"/></symbol><symbol id="m" overflow="visible"><path d="M14.719-14.828v3.984a7.612 7.612 0 0 0-2-1.015 6.629 6.629 0 0 0-2.078-.328c-1.367 0-2.434.402-3.203 1.203-.762.793-1.14 1.906-1.14 3.344 0 1.43.378 2.543 1.14 3.343.77.793 1.836 1.188 3.203 1.188.758 0 1.484-.11 2.172-.328a6.412 6.412 0 0 0 1.906-1.016v4c-.762.281-1.54.488-2.328.625a13.04 13.04 0 0 1-2.375.219C7.254.39 5.094-.316 3.53-1.734 1.977-3.148 1.203-5.117 1.203-7.64c0-2.531.774-4.504 2.328-5.922 1.563-1.414 3.723-2.125 6.485-2.125.8 0 1.594.074 2.375.219.781.136 1.555.351 2.328.64z" id="path62"/></symbol></defs><g id="g169"><path d="m582.715 240 86.576-46.528a173.296 173.296 0 0 0-8.083-29.921l-85.15 33.65 81.242-43.776c-18.203-41.647-50.615-70.942-74.318-87.906l-10.12 28.057c-.713 1.598-2.044 3.016-3.909 3.462-14.74 3.642-29.216 8.968-43.243 16.34-8.969 4.793-17.49 10.386-25.308 16.072-.446.267-.885.446-1.418.713-13.143 5.326-26.46 8.256-40.049 9.234-8.968.713-31.347-.712-42.086-1.598l-17.051 47.413c.266 6.218.712 12.43 1.418 18.383l17.757 3.016-16.785 5.773c1.418 9.234 2.75 16.605 4.175 18.383 3.196 4.348 13.849 13.143 21.22 19.355l2.576-6.658c.712-1.598 2.044-3.016 3.908-3.462 1.865-.446 3.642 0 5.327 1.152l49.277 42.086c1.418 1.152 2.044 3.016 1.864 4.794 0 1.864-.886 3.462-2.577 4.614l-152.265 95.37 34.097 24.148c25.573 15.447 52.746 28.323 80.802 38.71 28.77 10.387 58.692 18.203 89.06 22.998.445 0 1.598.266 2.044.446l2.75.266c2.576.446 4.614.712 6.924.886l2.75-4.175c13.143-20.248 44.397-68.638 66.062-105.398l-95.099 38.89 104.506-54.784c5.327-9.414 9.415-17.49 11.719-22.818 3.016-7.104 5.952-14.295 8.789-20.954l-92.789 37.56 98.56-52.033c5.06-13.849 8.968-26.725 11.718-39.603l-90.644 36.68 92.967-49.457c1.419-11.278 1.865-22.551.713-34.542zm-32.764-83.994c-3.463 9.415-13.85 14.295-23.264 10.833-9.235-3.462-14.029-13.849-10.566-23.264 3.195-9.234 13.582-14.028 22.997-10.566 9.501 3.196 14.295 13.583 10.833 22.997z" id="path67" style="stroke-width:1.58558px"/><path d="M524.635 553.787c-5.772-10.387-11.718-20.688-17.757-31.347-.712-1.419-.885-3.196-.266-4.794l5.327-14.741a5.944 5.944 0 0 1 4.174-3.642l15.892-3.642c0-2.75.267-5.327.446-8.083v-3.196c-28.504-4.794-57.805-12.43-85.862-22.552-27.172-9.854-53.365-22.551-78.314-37.293l-2.044 2.577c-1.598 2.31-3.196 4.348-4.794 6.485l9.855 13.143c1.152 1.598 1.418 3.462.712 5.326l-5.327 15.008c-.712 1.598-1.864 2.75-3.462 3.462-11.279 4.174-22.552 8.522-33.83 12.697-11.012 4.174-22.111 8.083-33.118 12.43-5.327 4.615-10.12 9.235-11.279 15.448-.886 4.348-.446 11.012 0 15.18 5.773 3.909 12.43 8.257 19.8 12.697 30.189 18.203 63.047 33.83 98.028 46.528 34.716 12.697 69.97 21.844 104.951 27.438 8.79 1.419 16.606 2.31 23.443 3.017 2.75-2.75 7.637-7.817 9.681-11.719 3.016-5.506 2.31-11.985 1.418-18.916-5.952-10.826-11.638-21.126-17.676-31.513z" id="path69" style="stroke-width:1.58558px"/><path d="M528.108 626.787c-5.952-.712-13.583-1.598-22.111-3.016-35.695-5.507-71.569-14.741-107.083-27.612-35.428-13.143-69.077-29.035-99.891-47.678a501.811 501.811 0 0 1-18.916-11.985c-1.598 1.418-3.017 3.016-4.348 4.614l-3.642 3.908-10.12 27.885a322.544 322.544 0 0 0 24.861 15.892c30.814 18.65 63.579 34.275 97.582 46.706 34.096 12.431 69.258 21.4 104.772 26.906a420.634 420.634 0 0 0 29.482 3.908l10.12-28.057-.266-5.326c-.173-2.063-.173-4.1-.44-6.144z" id="path71" style="stroke-width:1.58558px"/><path d="M105.454 68.011c6.219 4.348 15.448 5.952 24.415 4.615l.267-.267h.266c15.627-2.75 26.46-14.029 24.596-25.128-.886-5.06-4.615-9.414-10.121-12.165-4.348-2.31-9.414-3.462-15.007-3.462-2.31 0-4.615.267-6.925.712-7.816 1.419-14.74 4.794-19.534 9.855-4.348 4.793-6.219 10.12-5.327 15.18.892 5.42 4.354 8.882 7.37 10.66z" id="path73" style="stroke-width:1.58558px"/><path d="m100.38 253.588 119.514-21.22c15.007-20.687 21.665-40.049 19.355-57.806-5.326-46.527-66.507-88.439-77.78-95.983-7.105 1.419-14.475 2.577-21.666 4.175-2.044.266-3.908.446-5.506.712l-8.256 1.598-1.419.266-21.844 3.642C94.695 99.985 51.63 160.36 62.463 205.915c4.087 17.485 16.964 33.378 37.917 47.672z" id="path75" style="stroke-width:1.58558px"/><path d="m229.764 249.418-.446-2.75-6.658-2.936-119.786 20.96-4.348 9.588 14.561 13.143 106.55-18.823z" id="path77" style="stroke-width:1.58558px"/><path d="m91.866 318.058 158.137-27.884-.174-.886-26.998-9.414-109.126 19.089-22.104 18.202z" id="path79" style="stroke-width:1.58558px"/><path d="M241.307 327.46h.446l32.232-5.772c.712-.446 1.152-.712 1.152-.886.712-2.044-4.348-10.833-19.8-20.067L90.53 329.77c-11.545 14.295-13.317 23.976-11.985 25.574.266.266.446.446 1.418.712l32.677-5.772z" id="path81" style="stroke-width:1.58558px"/><path d="M116.998 506.108c-.713.712-1.419 1.418-2.044 2.31l178.378-31.52c-.886-.445-1.598-.885-2.75-1.418-9.681-4.614-20.687-9.414-32.232-19.089-32.232-26.906-26.013-93.234-22.818-116.231l-113.035 20.067c11.545 21.22 39.337 80.803 18.203 117.21-7.37 12.777-16.165 21.3-23.71 28.67z" id="path83" style="stroke-width:1.58558px"/><path d="M115.57 610.44c35.429.712 71.569-2.044 108.242-8.523 0 0 .266 0 .266-.266 15.447-2.577 30.634-5.952 45.55-9.854-6.22-3.909-12.431-7.817-17.937-11.985-2.044-1.419-3.016-4.175-2.044-6.658l12.165-33.119c.266-.712.712-1.418 1.152-2.043l4.614-4.794c2.044-2.044 3.908-4.175 5.952-6.485-.446-4.175-.885-12.164.267-18.203 1.597-7.816 6.218-13.582 11.012-18.383l-176.793 31.347c1.419 1.419 2.75 3.016 4.175 4.615.885.712 1.598 1.864 1.598 3.195l1.864 11.545c0 .267-.266.446-.266.713 0 .712-.267 1.418-.446 2.044-.267.712-.446 1.418-.886 1.864-.266.266-.266.446-.266.712a213.193 213.193 0 0 1-7.637 5.773c-7.37 5.06-14.295 10.12-19.089 23.975-2.31 7.105-4.614 14.03-2.576 20.515 1.598 4.174 5.326 9.854 7.636 13.143 6.844.427 14.921.607 23.443.873z" id="path85" style="stroke-width:1.58558px"/><path d="M226.117 613.198h-.712c-.446.267-.886.267-1.418.267-33.118 5.772-66.062 8.789-98.027 8.789-3.463 0-6.925-.267-10.567-.267-8.083 0-15.447-.446-22.11-.885-.447 1.864-.887 3.908-1.42 5.952l-1.418 5.326 6.219 34.982c9.414.712 19.355 1.152 29.482 1.152a557.306 557.306 0 0 0 107.262-8.257c.266 0 .446 0 .712-.266 34.717-5.952 69.525-15.627 103.174-28.504 1.418-.712 2.577-1.152 3.908-1.598-19.8-8.968-39.336-18.65-57.805-29.655-18.656 5.147-38.012 9.495-57.28 12.963z" id="path87" style="stroke-width:1.58558px"/></g></svg>